<?xml version="1.0" encoding="UTF-8"?>
<svg id="Layer_1" data-name="Layer 1" xmlns="http://www.w3.org/2000/svg" viewBox="0 0 612 180">
  <defs>
    <style>
      .cls-1 {
        fill: #fff;
      }
    </style>
  </defs>
  <g>
    <g>
      <path class="cls-1" d="M106.06,48.88l17.99-17.99,1.12.8c1.77,1.27,3.51,2.64,5.16,4.07l1.32,1.14-17.54,17.54c1.63,1.41,3.15,2.93,4.56,4.56l16.32-16.32,6.25-6.05c-5.15-5.62-11.12-10.46-17.72-14.37l-18.47,18.47V14.37c-2.12-.59-4.26-1.1-6.45-1.51l-.02,32.81c2.56.83,5.07,1.91,7.47,3.21Z"/>
      <path class="cls-1" d="M63.37,127.92l-18.04,18.03-1.13-.86c-.14-.11-3.47-2.64-5.1-4.06l-1.32-1.14,17.54-17.54c-1.63-1.41-3.15-2.93-4.56-4.56l-23.56,23.56c5.31,5.76,11.48,10.71,18.3,14.66l7.07-8.16,11.79-11.79v27.76c2.11.56,4.27,1.02,6.45,1.4l.02-34.09c-2.56-.83-5.07-1.91-7.47-3.21Z"/>
      <path class="cls-1" d="M124.23,109.75l17.99,17.99-.8,1.12c-1.27,1.77-2.64,3.5-4.07,5.16l-1.14,1.32-17.54-17.54c-1.41,1.63-2.93,3.15-4.56,4.56l23.03,23.03c5.51-5.18,10.26-11.15,14.08-17.73l-18.84-18.91h26.68c.56-2.11,1.02-4.27,1.4-6.45h-33.01c-.83,2.55-1.91,5.05-3.21,7.46Z"/>
      <path class="cls-1" d="M97.56,131.44v25.46l-1.36.23c-2.11.35-4.3.61-6.53.77l-1.74.12v-24.83c-2.18.16-4.26.16-6.45,0v33.13c.89.03,1.78.07,2.68.07,6.87,0,13.52-.91,19.86-2.59v-27.32l19.26,19.26c1.9-1.12,3.74-2.31,5.53-3.58l-23.72-23.75c-2.42,1.24-4.95,2.25-7.55,3.03Z"/>
      <path class="cls-1" d="M41.67,101.25h-25.46l-.23-1.36c-.35-2.11-.61-4.31-.77-6.53l-.12-1.74h24.83c-.08-1.09-.12-2.17-.12-3.22s.04-2.13.12-3.22H6.81c-.06,1.25-.1,2.5-.1,3.76,0,6.48.81,12.76,2.31,18.78h27.6l-19.66,19.66c1.1,1.92,2.27,3.78,3.53,5.59l24.19-24.17c-1.23-2.42-2.25-4.95-3.02-7.55Z"/>
      <path class="cls-1" d="M41.98,74.52c.83-2.56,1.91-5.07,3.21-7.47l-18.04-18.03.86-1.13c.11-.14,2.64-3.47,4.06-5.1l1.14-1.32,17.54,17.54c1.41-1.62,2.93-3.15,4.56-4.56l-22.99-22.99c-5.62,5.07-10.49,10.95-14.43,17.45l19.16,19.16H9.6c-.59,2.12-1.1,4.27-1.51,6.45h21.79s12.11.01,12.11.01Z"/>
      <path class="cls-1" d="M71.86,45.35v-25.5l1.4-.2c.17-.02,4.3-.61,6.49-.76l1.74-.12v24.83c2.18-.16,4.26-.16,6.45,0V11.58c-1.25-.06-2.5-.1-3.77-.1-6.48,0-12.76.81-18.78,2.31v26.52l-18.97-18.97c-1.93,1.08-3.82,2.23-5.64,3.47l23.54,23.56c2.42-1.23,4.95-2.25,7.55-3.02Z"/>
    </g>
    <path class="cls-1" d="M127.77,75.54h25.51s.23,1.35.23,1.35c.37,2.15.64,4.36.81,6.55l.13,1.74h-24.93c.17,2.14.1,4.36-.04,6.51l23.29-.04,8.72.06c.28-7.63-.56-15.23-2.51-22.67h-26.19s18.46-18.52,18.46-18.52c-1.09-1.92-2.31-3.79-3.57-5.63l-22.97,23.08c1.24,2.41,2.27,4.95,3.07,7.58Z"/>
  </g>
  <g>
    <g>
      <path class="cls-1" d="M221.16,42.52c-.53-.61-1.23-1.2-2.1-1.77-.88-.57-1.86-1.08-2.95-1.54-1.09-.46-2.29-.83-3.58-1.12-1.29-.28-2.64-.43-4.04-.43-3.63,0-6.29.68-7.98,2.04-1.69,1.36-2.53,3.22-2.53,5.58,0,1.27.24,2.32.72,3.15.48.83,1.24,1.54,2.27,2.13,1.03.59,2.31,1.11,3.84,1.54,1.53.44,3.35.9,5.45,1.38,2.41.53,4.59,1.13,6.53,1.81,1.95.68,3.61,1.52,4.99,2.53,1.38,1.01,2.43,2.23,3.15,3.68.72,1.44,1.08,3.22,1.08,5.32,0,2.23-.44,4.17-1.31,5.81-.88,1.64-2.07,3-3.58,4.07-1.51,1.07-3.29,1.86-5.35,2.36-2.06.5-4.29.75-6.7.75-3.59,0-6.99-.56-10.21-1.67s-6.14-2.75-8.77-4.89l2.82-4.99c.7.74,1.61,1.49,2.72,2.23,1.12.74,2.39,1.41,3.81,2,1.42.59,2.95,1.07,4.6,1.44,1.64.37,3.36.56,5.15.56,3.33,0,5.91-.59,7.75-1.77s2.76-2.95,2.76-5.32c0-1.31-.3-2.42-.89-3.32-.59-.9-1.46-1.67-2.59-2.33-1.14-.66-2.55-1.24-4.23-1.74-1.69-.5-3.6-1.02-5.75-1.54-2.36-.57-4.44-1.18-6.24-1.84-1.8-.66-3.29-1.44-4.5-2.36-1.2-.92-2.11-2.04-2.72-3.35-.61-1.31-.92-2.89-.92-4.73,0-2.23.42-4.2,1.25-5.91.83-1.71,1.99-3.15,3.48-4.33,1.49-1.18,3.26-2.07,5.32-2.66,2.06-.59,4.29-.89,6.7-.89,3.15,0,6,.48,8.54,1.44,2.54.96,4.79,2.26,6.76,3.87l-2.76,4.79Z"/>
      <path class="cls-1" d="M247.82,80.01c-2.58,0-4.94-.48-7.06-1.44-2.12-.96-3.94-2.25-5.45-3.87-1.51-1.62-2.68-3.5-3.51-5.65-.83-2.14-1.25-4.4-1.25-6.76s.43-4.68,1.28-6.83c.85-2.14,2.04-4.03,3.55-5.65,1.51-1.62,3.33-2.91,5.45-3.87,2.12-.96,4.45-1.44,6.99-1.44s4.88.48,7.03,1.44c2.14.96,3.97,2.26,5.48,3.87,1.51,1.62,2.69,3.5,3.55,5.65.85,2.15,1.28,4.42,1.28,6.83s-.42,4.62-1.25,6.76c-.83,2.15-2.01,4.03-3.55,5.65-1.53,1.62-3.36,2.91-5.48,3.87-2.12.96-4.48,1.44-7.06,1.44ZM236.46,62.35c0,1.8.3,3.46.89,4.99.59,1.53,1.4,2.87,2.43,4.01,1.03,1.14,2.23,2.04,3.61,2.69s2.86.98,4.43.98,3.05-.33,4.43-.98,2.59-1.56,3.64-2.72c1.05-1.16,1.87-2.52,2.46-4.07.59-1.55.89-3.23.89-5.02s-.3-3.4-.89-4.96c-.59-1.55-1.41-2.91-2.46-4.07-1.05-1.16-2.27-2.07-3.64-2.72s-2.86-.98-4.43-.98-3.05.34-4.43,1.02c-1.38.68-2.58,1.6-3.61,2.76-1.03,1.16-1.84,2.52-2.43,4.07-.59,1.55-.89,3.23-.89,5.02Z"/>
      <path class="cls-1" d="M301.63,79.35h-5.78v-19.17c0-3.68-.56-6.35-1.67-8.01-1.12-1.66-2.81-2.5-5.09-2.5-1.18,0-2.36.23-3.55.69-1.18.46-2.3,1.08-3.35,1.87s-1.97,1.73-2.76,2.82c-.79,1.09-1.38,2.3-1.77,3.61v20.68h-5.78v-34.27h5.25v7.35c1.36-2.41,3.32-4.33,5.88-5.78s5.35-2.17,8.37-2.17c1.97,0,3.61.36,4.92,1.08s2.36,1.73,3.15,3.02c.79,1.29,1.35,2.81,1.67,4.56.33,1.75.49,3.66.49,5.71v20.49Z"/>
      <path class="cls-1" d="M325.59,80.01c-2.58,0-4.94-.48-7.06-1.44-2.12-.96-3.94-2.25-5.45-3.87-1.51-1.62-2.68-3.5-3.51-5.65-.83-2.14-1.25-4.4-1.25-6.76s.43-4.68,1.28-6.83c.85-2.14,2.03-4.03,3.55-5.65,1.51-1.62,3.33-2.91,5.45-3.87,2.12-.96,4.45-1.44,6.99-1.44s4.88.48,7.03,1.44c2.14.96,3.97,2.26,5.48,3.87,1.51,1.62,2.69,3.5,3.54,5.65.85,2.15,1.28,4.42,1.28,6.83s-.42,4.62-1.25,6.76c-.83,2.15-2.01,4.03-3.55,5.65-1.53,1.62-3.36,2.91-5.48,3.87s-4.48,1.44-7.06,1.44ZM314.23,62.35c0,1.8.3,3.46.89,4.99.59,1.53,1.4,2.87,2.43,4.01,1.03,1.14,2.23,2.04,3.61,2.69,1.38.66,2.86.98,4.43.98s3.05-.33,4.43-.98c1.38-.66,2.59-1.56,3.64-2.72,1.05-1.16,1.87-2.52,2.46-4.07.59-1.55.89-3.23.89-5.02s-.3-3.4-.89-4.96c-.59-1.55-1.41-2.91-2.46-4.07-1.05-1.16-2.27-2.07-3.64-2.72-1.38-.66-2.86-.98-4.43-.98s-3.05.34-4.43,1.02c-1.38.68-2.58,1.6-3.61,2.76-1.03,1.16-1.84,2.52-2.43,4.07-.59,1.55-.89,3.23-.89,5.02Z"/>
      <path class="cls-1" d="M367.75,50.13c-2.89.09-5.44.83-7.65,2.23-2.21,1.4-3.78,3.35-4.7,5.84v21.14h-5.78v-34.27h5.38v7.94c1.18-2.36,2.74-4.28,4.66-5.75,1.93-1.47,3.98-2.29,6.17-2.46h1.12c.31,0,.57.02.79.07v5.25Z"/>
      <path class="cls-1" d="M382.26,80.01c-1.62,0-3.13-.27-4.53-.82-1.4-.55-2.62-1.3-3.64-2.27-1.03-.96-1.84-2.09-2.43-3.38-.59-1.29-.89-2.7-.89-4.24s.35-3.01,1.05-4.3c.7-1.29,1.7-2.4,2.99-3.32,1.29-.92,2.82-1.64,4.6-2.17,1.77-.53,3.71-.79,5.81-.79,1.66,0,3.35.15,5.06.46,1.71.31,3.22.72,4.53,1.25v-2.76c0-2.8-.79-5-2.36-6.6-1.58-1.6-3.81-2.4-6.7-2.4-3.46,0-7.09,1.34-10.9,4.01l-1.9-3.74c4.42-2.98,8.86-4.46,13.33-4.46s8.02,1.2,10.54,3.61c2.52,2.41,3.78,5.8,3.78,10.18v13.99c0,1.36.61,2.06,1.84,2.1v4.99c-.61.09-1.12.15-1.51.2-.39.04-.81.07-1.25.07-1.14,0-2.05-.34-2.73-1.02-.68-.68-1.08-1.5-1.21-2.46l-.13-2.43c-1.53,2.06-3.47,3.62-5.81,4.7-2.34,1.07-4.85,1.61-7.52,1.61ZM383.77,75.68c2.06,0,3.97-.38,5.74-1.15,1.77-.77,3.12-1.78,4.04-3.05.83-.83,1.25-1.68,1.25-2.56v-5.06c-2.8-1.09-5.71-1.64-8.73-1.64s-5.24.61-7.06,1.84c-1.82,1.23-2.73,2.82-2.73,4.79,0,.96.19,1.86.56,2.69.37.83.9,1.55,1.58,2.17.68.61,1.48,1.09,2.4,1.44.92.35,1.9.53,2.96.53Z"/>
      <path class="cls-1" d="M458.3,75.54c-1.75,1.27-3.68,2.28-5.78,3.02-2.1.74-4.33,1.12-6.7,1.12-3.28,0-6.27-.68-8.96-2.04-2.69-1.36-5-3.13-6.93-5.32-1.93-2.19-3.41-4.7-4.46-7.55-1.05-2.84-1.58-5.76-1.58-8.73s.56-6.08,1.67-8.93c1.12-2.84,2.66-5.36,4.63-7.55,1.97-2.19,4.3-3.93,6.99-5.22,2.69-1.29,5.61-1.94,8.76-1.94s6.26.69,8.93,2.07c2.67,1.38,4.97,3.18,6.89,5.42,1.93,2.23,3.41,4.76,4.46,7.58,1.05,2.82,1.58,5.7,1.58,8.63,0,3.15-.56,6.14-1.67,8.96-1.12,2.82-2.66,5.33-4.63,7.52l5.84,6.76h-5.78l-3.28-3.81ZM445.89,74.36c1.71,0,3.3-.26,4.79-.79,1.49-.53,2.84-1.25,4.07-2.17l-6.24-7.29h5.78l3.54,4.14c1.27-1.71,2.25-3.61,2.96-5.71.7-2.1,1.05-4.27,1.05-6.5,0-2.36-.38-4.65-1.15-6.86-.77-2.21-1.86-4.17-3.28-5.88-1.42-1.71-3.11-3.06-5.06-4.07-1.95-1.01-4.1-1.51-6.47-1.51-2.5,0-4.73.53-6.7,1.58s-3.64,2.44-5.02,4.17c-1.38,1.73-2.44,3.69-3.19,5.88-.74,2.19-1.12,4.42-1.12,6.7s.38,4.65,1.15,6.86c.76,2.21,1.85,4.17,3.25,5.88,1.4,1.71,3.09,3.06,5.06,4.07,1.97,1.01,4.16,1.51,6.57,1.51Z"/>
      <path class="cls-1" d="M485.55,80.01c-3.59,0-6.3-1.2-8.14-3.61-1.84-2.41-2.76-6-2.76-10.77v-20.55h5.78v19.44c0,7,2.43,10.51,7.29,10.51,2.36,0,4.58-.75,6.66-2.27,2.08-1.51,3.62-3.58,4.63-6.21v-21.47h5.78v27.18c0,1.36.61,2.06,1.84,2.1v4.99c-.66.09-1.17.14-1.54.16s-.73.03-1.08.03c-1.14,0-2.09-.34-2.86-1.02-.77-.68-1.17-1.52-1.21-2.53l-.13-4.01c-1.53,2.58-3.55,4.56-6.04,5.94-2.5,1.38-5.23,2.07-8.21,2.07Z"/>
      <path class="cls-1" d="M529.6,80.01c-2.58,0-4.95-.47-7.09-1.41-2.15-.94-3.98-2.22-5.52-3.84-1.53-1.62-2.73-3.51-3.58-5.68-.85-2.17-1.28-4.45-1.28-6.86s.43-4.68,1.28-6.83c.85-2.14,2.06-4.03,3.61-5.65,1.55-1.62,3.4-2.9,5.55-3.84,2.14-.94,4.51-1.41,7.09-1.41s4.93.48,7.06,1.44c2.12.96,3.93,2.24,5.42,3.84,1.49,1.6,2.64,3.46,3.45,5.58.81,2.12,1.21,4.32,1.21,6.6,0,.48-.01.92-.03,1.31s-.05.7-.1.92h-28.43c.13,1.71.53,3.26,1.18,4.66.66,1.4,1.51,2.6,2.56,3.61,1.05,1.01,2.24,1.8,3.58,2.36,1.34.57,2.75.85,4.23.85,1.05,0,2.08-.14,3.09-.43,1.01-.28,1.95-.67,2.82-1.15.88-.48,1.65-1.07,2.33-1.77.68-.7,1.19-1.49,1.54-2.36l4.99,1.38c-.57,1.27-1.35,2.43-2.33,3.48-.99,1.05-2.12,1.96-3.41,2.73-1.29.77-2.73,1.37-4.3,1.81s-3.22.66-4.92.66ZM541.36,59.92c-.13-1.62-.54-3.12-1.21-4.5-.68-1.38-1.53-2.55-2.56-3.51-1.03-.96-2.22-1.72-3.58-2.27-1.36-.55-2.8-.82-4.33-.82s-2.98.27-4.33.82c-1.36.55-2.55,1.31-3.58,2.3-1.03.98-1.86,2.16-2.5,3.51-.63,1.36-1.02,2.85-1.15,4.46h23.24Z"/>
      <path class="cls-1" d="M565.26,80.01c-2.76,0-5.47-.43-8.14-1.28-2.67-.85-4.97-2.09-6.89-3.71l2.5-3.87c2.01,1.53,4.03,2.68,6.04,3.45,2.01.77,4.14,1.15,6.37,1.15,2.5,0,4.47-.49,5.94-1.48,1.47-.98,2.2-2.37,2.2-4.17,0-.83-.2-1.54-.59-2.13s-.98-1.11-1.77-1.54c-.79-.44-1.8-.83-3.02-1.18-1.23-.35-2.65-.72-4.27-1.12-2.06-.53-3.83-1.03-5.32-1.51-1.49-.48-2.71-1.05-3.68-1.71-.96-.66-1.66-1.44-2.1-2.36-.44-.92-.66-2.06-.66-3.41,0-1.71.34-3.23,1.02-4.56.68-1.33,1.61-2.45,2.79-3.35,1.18-.9,2.57-1.58,4.17-2.04,1.6-.46,3.32-.69,5.15-.69,2.58,0,4.99.42,7.22,1.25,2.23.83,4.11,1.93,5.65,3.28l-2.63,3.48c-1.44-1.27-3.06-2.22-4.86-2.86-1.8-.63-3.63-.95-5.52-.95-2.1,0-3.89.45-5.35,1.35-1.47.9-2.2,2.33-2.2,4.3,0,.79.14,1.44.43,1.97.28.53.75.98,1.41,1.38s1.5.74,2.53,1.05c1.03.31,2.27.64,3.71.98,2.28.53,4.26,1.06,5.94,1.61,1.68.55,3.09,1.19,4.2,1.94,1.12.74,1.95,1.62,2.5,2.63.55,1.01.82,2.23.82,3.68,0,3.2-1.23,5.74-3.68,7.62-2.45,1.88-5.76,2.82-9.91,2.82Z"/>
      <path class="cls-1" d="M603.4,77.64c-.35.18-.81.38-1.38.62-.57.24-1.22.48-1.94.72-.72.24-1.51.44-2.36.59-.85.15-1.74.23-2.66.23-2.1,0-3.92-.58-5.45-1.74-1.53-1.16-2.3-2.97-2.3-5.42v-23.05h-4.66v-4.53h4.66v-11.42h5.78v11.42h7.68v4.53h-7.68v21.27c.09,1.27.5,2.19,1.25,2.76.74.57,1.62.85,2.63.85,1.14,0,2.18-.19,3.12-.56.94-.37,1.59-.67,1.94-.89l1.38,4.6Z"/>
    </g>
    <g>
      <g>
        <polygon class="cls-1" points="191.56 142.67 191.56 95.93 193.15 95.93 193.15 141.07 222.33 141.07 222.33 142.67 191.56 142.67"/>
        <path class="cls-1" d="M236.65,143.32c-2.07,0-3.96-.47-5.63-1.39-1.67-.92-3.02-2.21-4.01-3.81-.99-1.61-1.49-3.4-1.49-5.34s.62-3.67,1.83-5.13c1.21-1.45,2.89-2.61,5-3.44,2.1-.83,4.56-1.25,7.32-1.25,1.92,0,3.92.17,5.94.49,1.94.31,3.72.76,5.3,1.34v-3.65c0-3.48-1.01-6.32-3-8.44-1.99-2.12-4.67-3.19-7.98-3.19-1.59,0-3.34.36-5.22,1.07-1.88.71-3.79,1.75-5.69,3.09l-.11.08-.96-1.28.12-.08c2.18-1.48,4.28-2.61,6.25-3.35,1.97-.74,3.86-1.12,5.61-1.12,3.82,0,6.9,1.2,9.17,3.58,2.26,2.37,3.41,5.62,3.41,9.65v18.78c0,.4.09.69.26.88.17.19.38.28.65.28h.14v1.6h-.14c-.27,0-.48-.01-.61-.04-.15-.02-.27-.06-.37-.11-.45-.18-.83-.52-1.11-1.01-.27-.48-.41-1.02-.41-1.61v-2.73c-1.54,1.87-3.54,3.36-5.95,4.43-2.54,1.14-5.33,1.71-8.3,1.71ZM239.66,124.54c-3.75,0-6.82.76-9.11,2.27-2.28,1.49-3.44,3.5-3.44,5.96,0,1.67.42,3.19,1.25,4.54.83,1.35,1.99,2.43,3.45,3.22,1.45.79,3.08,1.19,4.84,1.19,2.89,0,5.57-.55,7.96-1.62,2.38-1.07,4.18-2.53,5.34-4.33.34-.47.59-.93.74-1.37.15-.44.22-.86.22-1.23v-6.64c-1.7-.67-3.5-1.17-5.34-1.49-1.88-.32-3.86-.49-5.9-.49Z"/>
        <path class="cls-1" d="M277.48,143.32c-2.68,0-5.27-.77-7.7-2.28-2.28-1.41-4.1-3.13-5.44-5.1v6.73h-1.6v-48.05h1.6v21.42c1.69-2.29,3.63-4.21,5.79-5.73,2.28-1.6,4.95-2.41,7.93-2.41,2.5,0,4.75.52,6.71,1.55,1.95,1.03,3.64,2.43,5.02,4.16,1.38,1.73,2.43,3.66,3.13,5.74.7,2.08,1.05,4.2,1.05,6.29,0,2.32-.42,4.56-1.25,6.66-.83,2.1-2.01,4-3.49,5.64-1.49,1.64-3.25,2.96-5.25,3.93-2,.96-4.19,1.45-6.51,1.45ZM278.06,109.5c-2.1,0-4.06.47-5.82,1.39-1.76.92-3.32,2.13-4.64,3.6-1.31,1.47-2.42,3.08-3.28,4.81l.02,12.3c.08,1.35.56,2.66,1.41,3.88.86,1.22,1.97,2.31,3.3,3.24,1.33.93,2.76,1.67,4.25,2.21,1.48.54,2.89.81,4.17.81,2.15,0,4.15-.46,5.95-1.36,1.81-.9,3.4-2.15,4.73-3.69,1.33-1.55,2.38-3.3,3.12-5.19.73-1.9,1.1-3.86,1.1-5.84,0-2.76-.61-5.4-1.82-7.85-1.21-2.45-2.9-4.47-5.03-6-2.12-1.52-4.64-2.3-7.47-2.3Z"/>
        <path class="cls-1" d="M316.01,143.32c-2.24,0-4.37-.47-6.34-1.39-1.97-.92-3.73-2.22-5.22-3.86-1.49-1.64-2.67-3.55-3.5-5.67-.83-2.12-1.25-4.39-1.25-6.76s.43-4.7,1.29-6.83c.85-2.12,2.04-4.03,3.53-5.67,1.49-1.64,3.24-2.94,5.21-3.86,1.97-.92,4.08-1.39,6.28-1.39s4.3.47,6.28,1.39c1.97.92,3.72,2.22,5.21,3.86,1.49,1.64,2.67,3.55,3.53,5.67.85,2.12,1.29,4.42,1.29,6.83s-.42,4.64-1.25,6.76c-.83,2.12-2.02,4.03-3.53,5.67-1.51,1.64-3.26,2.94-5.21,3.86-1.95.92-4.07,1.39-6.31,1.39ZM316.01,109.5c-2.62,0-5.08.75-7.31,2.23-2.24,1.48-4.05,3.48-5.38,5.93s-2.01,5.18-2.01,8.11.67,5.57,1.98,7.98c1.31,2.41,3.1,4.37,5.32,5.8,2.21,1.44,4.68,2.17,7.35,2.17s5.15-.74,7.38-2.2c2.24-1.46,4.05-3.45,5.38-5.9,1.33-2.46,2.01-5.16,2.01-8.05s-.68-5.58-2.01-8.01c-1.33-2.43-3.13-4.41-5.35-5.87-2.21-1.46-4.69-2.2-7.35-2.2Z"/>
        <path class="cls-1" d="M340.54,142.67v-34.24h1.6v8.31c1.15-2.17,2.67-4,4.51-5.44,2-1.56,4.15-2.48,6.39-2.75.44-.04.85-.08,1.22-.1.37-.02.69-.03.96-.03h.14v1.59h-.14c-3.14.13-5.9,1.19-8.22,3.15-2.32,1.96-3.96,4.63-4.86,7.94v21.57s-1.59,0-1.59,0Z"/>
        <path class="cls-1" d="M369.4,143.32c-2.06,0-3.96-.47-5.63-1.39-1.67-.92-3.02-2.21-4.01-3.81-.99-1.61-1.49-3.41-1.49-5.34s.62-3.67,1.83-5.13c1.21-1.45,2.89-2.61,5-3.44,2.1-.83,4.56-1.25,7.31-1.25,1.92,0,3.92.17,5.94.49,1.94.31,3.72.76,5.3,1.34v-3.65c0-3.48-1.01-6.32-3-8.44-1.99-2.12-4.67-3.19-7.98-3.19-1.59,0-3.34.36-5.22,1.07-1.87.71-3.79,1.75-5.69,3.09l-.11.08-.96-1.28.12-.08c2.18-1.48,4.28-2.61,6.25-3.35,1.97-.74,3.86-1.12,5.61-1.12,3.82,0,6.9,1.2,9.17,3.58,2.26,2.37,3.41,5.62,3.41,9.65v18.78c0,.4.09.7.26.88s.38.28.65.28h.14v1.6h-.14c-.27,0-.48-.01-.61-.04-.15-.02-.27-.06-.37-.11-.45-.18-.83-.52-1.11-1-.27-.48-.41-1.02-.41-1.61v-2.73c-1.54,1.87-3.54,3.35-5.95,4.43-2.54,1.14-5.33,1.71-8.3,1.71ZM372.41,124.54c-3.75,0-6.81.76-9.11,2.27-2.28,1.49-3.44,3.5-3.44,5.96,0,1.67.42,3.19,1.25,4.54.83,1.35,1.99,2.43,3.45,3.22,1.46.79,3.08,1.19,4.84,1.19,2.89,0,5.57-.55,7.96-1.62,2.38-1.07,4.18-2.53,5.34-4.33.34-.47.59-.93.74-1.37.15-.44.22-.86.22-1.23v-6.64c-1.71-.67-3.5-1.17-5.35-1.49-1.88-.32-3.86-.49-5.9-.49Z"/>
        <path class="cls-1" d="M402.38,143.32c-1.06,0-2.07-.23-2.97-.67-.91-.45-1.66-1.09-2.21-1.9-.56-.81-.84-1.77-.84-2.86v-27.87h-4.91v-1.6h4.91v-11.84h1.6v11.84h8.18v1.6h-8.18v27.88c.08,1.22.57,2.17,1.45,2.83.89.66,1.89,1,2.99,1,1.5,0,2.77-.26,3.8-.77,1.24-.62,1.56-.79,1.61-.83l.12-.12.09.15.81,1.17-.13.08c-1.1.66-2.12,1.15-3.04,1.45-.93.31-2.02.46-3.25.46Z"/>
        <path class="cls-1" d="M427.5,143.32c-2.24,0-4.37-.47-6.34-1.39-1.97-.92-3.73-2.22-5.21-3.86-1.49-1.64-2.67-3.55-3.5-5.67-.83-2.12-1.25-4.39-1.25-6.76s.43-4.7,1.29-6.83c.85-2.12,2.04-4.03,3.53-5.67,1.49-1.64,3.24-2.94,5.21-3.86,1.97-.92,4.08-1.39,6.28-1.39s4.3.47,6.28,1.39c1.97.92,3.72,2.22,5.21,3.86,1.49,1.64,2.67,3.55,3.53,5.67.85,2.13,1.29,4.42,1.29,6.83s-.42,4.63-1.25,6.76c-.83,2.12-2.02,4.03-3.53,5.67-1.51,1.64-3.26,2.94-5.21,3.86-1.95.92-4.07,1.39-6.31,1.39ZM427.5,109.5c-2.62,0-5.08.75-7.31,2.23-2.24,1.48-4.05,3.48-5.38,5.93-1.33,2.45-2.01,5.18-2.01,8.11s.67,5.57,1.98,7.98c1.31,2.41,3.1,4.36,5.32,5.8,2.21,1.44,4.68,2.17,7.35,2.17s5.15-.74,7.38-2.2c2.24-1.46,4.05-3.45,5.38-5.9,1.33-2.46,2.01-5.16,2.01-8.05s-.68-5.58-2.01-8.01c-1.33-2.43-3.14-4.41-5.35-5.87-2.21-1.46-4.68-2.2-7.35-2.2Z"/>
        <path class="cls-1" d="M452.03,142.67v-34.24h1.6v8.31c1.15-2.17,2.67-4,4.51-5.44,2-1.56,4.15-2.48,6.39-2.75.44-.04.85-.08,1.22-.1.37-.02.69-.03.96-.03h.14v1.59h-.14c-3.14.13-5.9,1.19-8.22,3.15-2.32,1.96-3.96,4.63-4.86,7.94v21.57s-1.59,0-1.59,0Z"/>
        <rect class="cls-1" x="473.16" y="94.62" width="1.6" height="5.33"/>
        <rect class="cls-1" x="473.16" y="108.42" width="1.6" height="34.24"/>
        <path class="cls-1" d="M499.47,143.32c-2.24,0-4.38-.48-6.38-1.42-1.99-.94-3.77-2.25-5.28-3.89-1.51-1.64-2.71-3.58-3.56-5.74-.85-2.17-1.29-4.51-1.29-6.96,0-3.19.73-6.15,2.18-8.77,1.44-2.63,3.41-4.75,5.84-6.3,2.43-1.56,5.18-2.34,8.16-2.34s5.81.8,8.29,2.38c2.47,1.58,4.48,3.72,5.97,6.36,1.49,2.65,2.24,5.66,2.24,8.94v.86h-31.07c.23,2.83,1.04,5.42,2.39,7.7,1.38,2.32,3.19,4.19,5.38,5.55,2.19,1.35,4.61,2.04,7.19,2.04s5.02-.67,7.25-1.98c2.23-1.31,3.84-3.02,4.79-5.07l.05-.11,1.52.4-.06.15c-.62,1.54-1.63,2.96-3.01,4.21-1.38,1.25-3.01,2.24-4.86,2.94-1.84.7-3.77,1.06-5.74,1.06ZM513.98,124.84c-.19-2.95-.95-5.6-2.26-7.86-1.34-2.3-3.1-4.15-5.25-5.48-2.15-1.33-4.59-2.01-7.25-2.01s-5.04.68-7.19,2.01c-2.15,1.33-3.91,3.19-5.22,5.51-1.29,2.28-2.04,4.92-2.23,7.83h29.4Z"/>
        <path class="cls-1" d="M533.17,143.32c-2.58,0-5-.45-7.19-1.35-2.19-.9-4.17-2.31-5.88-4.19l-.1-.11,1.19-1.03.09.09c1.73,1.68,3.56,2.95,5.45,3.77,1.89.82,4.05,1.23,6.42,1.23,3.31,0,6.04-.73,8.1-2.17,2.04-1.43,3.08-3.42,3.08-5.93,0-1.61-.45-2.89-1.33-3.79-.9-.92-2.23-1.68-3.97-2.25-1.75-.58-3.92-1.17-6.43-1.73-2.3-.56-4.26-1.13-5.81-1.67-1.57-.55-2.76-1.33-3.53-2.3-.78-.98-1.18-2.4-1.18-4.21,0-2.29.57-4.17,1.7-5.59,1.12-1.41,2.62-2.47,4.45-3.15,1.82-.68,3.83-1.02,5.97-1.02,2.75,0,5.14.48,7.1,1.42,1.96.95,3.33,2.15,4.09,3.56l.07.14-1.43.64-.07-.11c-.81-1.32-2.15-2.33-3.98-3.02-1.85-.69-3.88-1.04-6.04-1.04-1.85,0-3.57.28-5.12.84-1.54.56-2.8,1.42-3.73,2.57-.93,1.15-1.41,2.68-1.41,4.55,0,1.44.32,2.58.95,3.38.63.8,1.62,1.45,2.94,1.92,1.34.48,3.07.98,5.16,1.5,2.71.61,5.07,1.25,7.01,1.9,1.98.66,3.51,1.54,4.57,2.62,1.07,1.09,1.61,2.66,1.61,4.65,0,3-1.18,5.43-3.52,7.21-2.33,1.78-5.44,2.68-9.25,2.68Z"/>
      </g>
      <g>
        <path class="cls-1" d="M552.31,110.92c-.7,0-1.35-.12-1.93-.36-.59-.24-1.11-.58-1.54-1.01-.44-.43-.79-.95-1.03-1.53-.24-.58-.37-1.23-.37-1.92s.12-1.32.37-1.9c.24-.58.59-1.1,1.03-1.53.44-.43.96-.77,1.54-1.01s1.24-.36,1.94-.36,1.35.12,1.94.36c.59.24,1.11.58,1.55,1.01.44.43.79.94,1.03,1.53.24.59.37,1.23.37,1.9s-.12,1.33-.37,1.92c-.24.58-.59,1.1-1.03,1.53-.44.44-.96.78-1.55,1.01-.59.24-1.24.36-1.94.36ZM552.31,102.01c-.59,0-1.14.1-1.64.31-.5.2-.94.49-1.31.86-.37.37-.67.81-.87,1.3-.21.49-.31,1.04-.31,1.62s.1,1.13.31,1.63c.21.5.5.94.87,1.32.37.37.81.66,1.31.87.5.21,1.06.31,1.65.31.78,0,1.49-.17,2.12-.52.62-.34,1.12-.83,1.49-1.44.36-.62.55-1.35.55-2.16,0-.58-.1-1.12-.31-1.62-.21-.5-.5-.93-.87-1.3-.37-.37-.81-.66-1.31-.86-.51-.2-1.06-.31-1.66-.31ZM553.94,109.22l-1.42-2.22h-1.47v2.22h-.83v-6.19h2.61c.36,0,.69.1.97.3.28.19.5.44.66.74.16.3.24.62.24.94,0,.31-.06.6-.19.87-.13.27-.31.51-.53.69-.17.14-.36.24-.57.3l1.49,2.34h-.95ZM552.85,106.21c.34,0,.59-.11.76-.34.18-.24.27-.53.27-.86,0-.35-.1-.63-.31-.85-.2-.22-.46-.33-.78-.33h-1.75v2.38h1.8Z"/>
        <path class="cls-1" d="M552.31,110.86c-.69,0-1.33-.12-1.91-.35-.58-.24-1.09-.57-1.52-1-.43-.43-.78-.94-1.02-1.51-.24-.58-.36-1.21-.36-1.89s.12-1.3.36-1.88.58-1.08,1.02-1.51c.43-.42.95-.76,1.52-.99.58-.24,1.22-.36,1.91-.36s1.34.12,1.92.36c.58.24,1.1.57,1.53.99.43.42.78.93,1.02,1.51s.36,1.21.36,1.88-.12,1.32-.36,1.89-.58,1.09-1.02,1.51c-.43.43-.95.77-1.53,1-.58.24-1.23.35-1.92.35ZM552.31,101.95c-.6,0-1.16.1-1.67.31-.51.2-.96.5-1.33.88-.38.38-.68.82-.88,1.32-.21.5-.32,1.05-.32,1.64s.11,1.14.32,1.65c.21.51.51.96.88,1.34.37.38.82.67,1.33.88.51.21,1.07.32,1.67.32.79,0,1.51-.18,2.15-.52.63-.35,1.14-.84,1.51-1.47.37-.63.56-1.37.56-2.2,0-.59-.11-1.14-.32-1.64-.21-.5-.51-.95-.88-1.32-.37-.38-.82-.67-1.33-.88-.51-.21-1.08-.31-1.69-.31ZM553.98,109.16l-1.42-2.22h-1.56v2.22h-.7v-6.06h2.55c.35,0,.66.1.93.29.27.19.48.43.64.72.15.29.23.6.23.91,0,.3-.06.58-.18.85-.12.27-.3.49-.52.67-.19.15-.4.25-.63.3l1.48,2.31h-.81ZM552.85,106.28c.36,0,.63-.12.81-.36.19-.25.29-.55.29-.9,0-.36-.11-.66-.32-.9-.22-.24-.49-.35-.82-.35h-1.81v2.5h1.86Z"/>
        <path class="cls-1" d="M552.31,110.83c-.69,0-1.33-.12-1.9-.35-.57-.23-1.08-.57-1.51-.99-.43-.43-.77-.93-1.01-1.5-.24-.57-.36-1.21-.36-1.88s.12-1.3.36-1.87c.24-.57.58-1.08,1.01-1.5.43-.42.94-.75,1.51-.99.57-.23,1.21-.35,1.9-.35s1.33.12,1.91.35c.58.23,1.09.57,1.52.99.43.42.77.92,1.01,1.5.24.57.36,1.2.36,1.87s-.12,1.31-.36,1.88c-.24.57-.58,1.08-1.01,1.5-.43.43-.94.76-1.52.99-.58.23-1.22.35-1.91.35ZM552.31,101.92c-.6,0-1.17.1-1.68.31-.51.21-.96.5-1.34.88-.38.38-.68.83-.89,1.33-.21.51-.32,1.06-.32,1.65s.11,1.15.32,1.67c.21.51.51.97.89,1.35.38.38.83.68,1.34.89.52.21,1.08.32,1.68.32.8,0,1.52-.18,2.16-.53.64-.35,1.15-.85,1.52-1.48.37-.63.56-1.38.56-2.21,0-.59-.11-1.15-.32-1.65-.21-.51-.51-.96-.89-1.33-.38-.38-.83-.68-1.34-.88-.52-.21-1.09-.31-1.7-.31ZM554,109.12l-1.42-2.22h-1.61v2.22h-.64v-6h2.52c.34,0,.65.09.92.28.27.19.48.42.63.71.15.29.23.59.23.9,0,.29-.06.57-.18.83-.12.26-.29.48-.51.66-.19.16-.42.26-.67.31l1.47,2.31h-.73ZM552.85,106.31c.37,0,.64-.12.84-.37.19-.25.29-.56.29-.92s-.11-.68-.33-.92c-.22-.24-.5-.36-.85-.36h-1.84v2.57h1.89Z"/>
        <path class="cls-1" d="M552.31,110.77c-.68,0-1.31-.12-1.88-.35-.57-.23-1.07-.56-1.49-.98-.43-.42-.76-.92-1-1.48s-.36-1.19-.36-1.86.12-1.28.36-1.84.57-1.06,1-1.48.92-.74,1.49-.97c.57-.23,1.19-.35,1.88-.35s1.31.12,1.88.35c.57.23,1.07.56,1.5.97s.76.91,1,1.48.36,1.18.36,1.84-.12,1.29-.36,1.86-.57,1.06-1,1.48c-.43.42-.93.75-1.5.98s-1.2.35-1.88.35ZM552.31,110.38c.81,0,1.54-.18,2.19-.54.65-.36,1.17-.86,1.55-1.5.38-.64.57-1.39.57-2.24,0-.6-.11-1.16-.32-1.68-.22-.52-.52-.97-.9-1.35-.38-.39-.84-.69-1.36-.9-.53-.21-1.1-.32-1.72-.32s-1.18.11-1.7.32-.98.51-1.36.9c-.39.39-.69.84-.91,1.35-.22.52-.32,1.07-.32,1.68s.11,1.17.32,1.69c.22.52.52.98.9,1.37.38.39.84.69,1.36.9.53.21,1.1.32,1.71.32ZM550.38,103.19h2.46c.33,0,.62.09.88.27s.46.41.61.69c.15.28.22.57.22.87,0,.28-.06.55-.17.81-.12.25-.28.47-.49.64-.21.17-.45.27-.73.31l1.46,2.29h-.58l-1.42-2.22h-1.71v2.22h-.52v-5.87ZM552.85,106.37c.39,0,.68-.13.89-.4.2-.27.3-.58.3-.95s-.12-.71-.35-.96-.53-.38-.89-.38h-1.9v2.69h1.95Z"/>
      </g>
    </g>
  </g>
</svg>