<?xml version="1.0" encoding="UTF-8"?>
<svg id="Layer_1" data-name="Layer 1" xmlns="http://www.w3.org/2000/svg" viewBox="0 0 554.53 143.08">
  <defs>
    <style>
      .cls-1 {
        stroke: #006271;
        stroke-miterlimit: 10;
        stroke-width: .5px;
      }

      .cls-1, .cls-2 {
        fill: #006271;
      }

      .cls-3 {
        fill: #832b37;
      }
    </style>
  </defs>
  <g>
    <polygon class="cls-1" points="173.05 78.61 171.83 78.61 171.83 121.79 200.17 121.79 200.17 120.57 173.05 120.57 173.05 78.61"/>
    <path class="cls-1" d="M228.21,119.36v-17.46c0-3.73-1.04-6.69-3.13-8.88-2.09-2.19-4.9-3.28-8.42-3.28-1.62,0-3.34.34-5.17,1.03-1.82.69-3.75,1.72-5.78,3.1l.73.97c1.78-1.26,3.56-2.22,5.32-2.89s3.4-1,4.9-1c3.12,0,5.63,1,7.51,3.01,1.89,2.01,2.83,4.65,2.83,7.94v3.59c-1.5-.57-3.19-1-5.08-1.31-1.89-.3-3.72-.46-5.5-.46-2.55,0-4.8.39-6.75,1.16-1.95.77-3.48,1.82-4.59,3.16-1.12,1.34-1.67,2.9-1.67,4.68s.46,3.42,1.37,4.9c.91,1.48,2.14,2.65,3.68,3.5,1.54.85,3.26,1.28,5.17,1.28,2.76,0,5.31-.53,7.66-1.58,2.35-1.05,4.26-2.51,5.72-4.38v2.92c0,.53.12,1,.36,1.43.24.43.57.72.97.88.08.04.18.07.3.09.12.02.3.03.55.03v-1.22c-.28,0-.52-.1-.7-.3-.18-.2-.27-.51-.27-.91ZM226.99,113.09c0,.36-.07.76-.21,1.19-.14.43-.38.86-.7,1.31-1.09,1.7-2.77,3.06-5.02,4.08-2.25,1.01-4.73,1.52-7.45,1.52-1.66,0-3.18-.37-4.56-1.13-1.38-.75-2.46-1.76-3.25-3.04s-1.19-2.71-1.19-4.29c0-2.35,1.08-4.24,3.25-5.66,2.17-1.42,5.02-2.13,8.55-2.13,1.91,0,3.74.15,5.5.46,1.76.3,3.46.78,5.08,1.43v6.26Z"/>
    <path class="cls-1" d="M262.91,95c-1.28-1.6-2.82-2.88-4.62-3.83-1.8-.95-3.86-1.43-6.17-1.43-2.76,0-5.19.74-7.3,2.22-2.11,1.48-3.97,3.36-5.6,5.63v-20.19h-1.22v44.4h1.22v-6.57c1.26,1.99,3.01,3.68,5.26,5.08,2.25,1.4,4.61,2.1,7.09,2.1,2.15,0,4.15-.45,5.99-1.34,1.84-.89,3.46-2.1,4.84-3.62,1.38-1.52,2.45-3.25,3.22-5.2.77-1.95,1.16-3.99,1.16-6.14,0-1.95-.33-3.88-.97-5.81-.65-1.93-1.61-3.69-2.89-5.29ZM264.52,111.57c-.69,1.78-1.66,3.41-2.92,4.87-1.26,1.46-2.74,2.61-4.44,3.47-1.7.85-3.57,1.28-5.6,1.28-1.22,0-2.52-.25-3.92-.76-1.4-.51-2.73-1.2-3.98-2.07-1.26-.87-2.29-1.89-3.1-3.04-.81-1.16-1.26-2.38-1.34-3.68v-11.49c.81-1.62,1.83-3.12,3.07-4.5,1.24-1.38,2.69-2.5,4.35-3.38,1.66-.87,3.49-1.31,5.47-1.31,2.68,0,5.02.72,7.02,2.16,2.01,1.44,3.58,3.31,4.71,5.63,1.13,2.31,1.7,4.77,1.7,7.36,0,1.87-.35,3.69-1.03,5.47Z"/>
    <path class="cls-1" d="M297.97,94.57c-1.38-1.52-2.98-2.71-4.8-3.56-1.82-.85-3.75-1.28-5.78-1.28s-3.95.43-5.78,1.28c-1.82.85-3.43,2.04-4.8,3.56-1.38,1.52-2.46,3.26-3.25,5.23-.79,1.97-1.19,4.07-1.19,6.29s.38,4.27,1.16,6.23c.77,1.97,1.84,3.71,3.22,5.23,1.38,1.52,2.98,2.71,4.8,3.56,1.82.85,3.77,1.28,5.84,1.28s4-.43,5.81-1.28c1.8-.85,3.41-2.04,4.8-3.56s2.48-3.26,3.25-5.23c.77-1.97,1.16-4.04,1.16-6.23s-.4-4.33-1.19-6.29c-.79-1.97-1.88-3.71-3.25-5.23ZM299.31,113.58c-1.26,2.31-2.94,4.16-5.05,5.53-2.11,1.38-4.42,2.07-6.93,2.07s-4.82-.68-6.9-2.04c-2.09-1.36-3.75-3.17-4.99-5.44-1.24-2.27-1.85-4.76-1.85-7.48s.63-5.29,1.89-7.6c1.26-2.31,2.94-4.17,5.05-5.56,2.11-1.4,4.4-2.1,6.87-2.1s4.81.69,6.9,2.07c2.09,1.38,3.76,3.21,5.02,5.5,1.26,2.29,1.89,4.8,1.89,7.51s-.63,5.23-1.89,7.54Z"/>
    <path class="cls-1" d="M321.81,90.35c-2.07.24-4.02,1.09-5.87,2.52-1.85,1.44-3.31,3.28-4.41,5.5v-8.15h-1.22v31.57h1.22v-19.95c.85-3.12,2.37-5.6,4.56-7.45,2.19-1.84,4.76-2.83,7.72-2.95v-1.22c-.24,0-.54.01-.88.03-.34.02-.72.05-1.13.09Z"/>
    <path class="cls-1" d="M351.61,119.36v-17.46c0-3.73-1.05-6.69-3.13-8.88-2.09-2.19-4.9-3.28-8.42-3.28-1.62,0-3.35.34-5.17,1.03-1.82.69-3.75,1.72-5.78,3.1l.73.97c1.78-1.26,3.56-2.22,5.32-2.89,1.76-.67,3.4-1,4.9-1,3.12,0,5.63,1,7.51,3.01,1.88,2.01,2.83,4.65,2.83,7.94v3.59c-1.5-.57-3.19-1-5.08-1.31-1.88-.3-3.72-.46-5.5-.46-2.55,0-4.8.39-6.75,1.16-1.95.77-3.48,1.82-4.59,3.16-1.12,1.34-1.67,2.9-1.67,4.68s.46,3.42,1.37,4.9c.91,1.48,2.14,2.65,3.68,3.5,1.54.85,3.26,1.28,5.17,1.28,2.76,0,5.31-.53,7.66-1.58,2.35-1.05,4.26-2.51,5.72-4.38v2.92c0,.53.12,1,.36,1.43.24.43.57.72.97.88.08.04.18.07.3.09.12.02.3.03.55.03v-1.22c-.28,0-.52-.1-.7-.3-.18-.2-.27-.51-.27-.91ZM350.4,113.09c0,.36-.07.76-.21,1.19-.14.43-.38.86-.7,1.31-1.1,1.7-2.77,3.06-5.02,4.08-2.25,1.01-4.74,1.52-7.45,1.52-1.66,0-3.18-.37-4.56-1.13-1.38-.75-2.46-1.76-3.25-3.04-.79-1.28-1.19-2.71-1.19-4.29,0-2.35,1.08-4.24,3.25-5.66,2.17-1.42,5.02-2.13,8.54-2.13,1.91,0,3.74.15,5.5.46,1.76.3,3.46.78,5.08,1.43v6.26Z"/>
    <path class="cls-1" d="M371.26,120.45c-.97.49-2.17.73-3.59.73-1.05,0-2.01-.32-2.86-.95-.85-.63-1.32-1.55-1.4-2.74v-26.05h7.6v-1.22h-7.6v-11.01h-1.22v11.01h-4.56v1.22h4.56v26.04c0,.98.25,1.84.76,2.58.51.74,1.18,1.31,2.01,1.72.83.41,1.73.61,2.71.61,1.14,0,2.13-.14,2.98-.43.85-.28,1.78-.73,2.8-1.34l-.67-.97s-.55.3-1.52.79Z"/>
    <path class="cls-1" d="M401.6,94.57c-1.38-1.52-2.98-2.71-4.8-3.56-1.82-.85-3.75-1.28-5.78-1.28s-3.95.43-5.78,1.28c-1.83.85-3.43,2.04-4.81,3.56-1.38,1.52-2.46,3.26-3.25,5.23-.79,1.97-1.19,4.07-1.19,6.29s.38,4.27,1.16,6.23c.77,1.97,1.84,3.71,3.22,5.23,1.38,1.52,2.98,2.71,4.8,3.56,1.82.85,3.77,1.28,5.84,1.28s4-.43,5.81-1.28,3.41-2.04,4.8-3.56c1.4-1.52,2.48-3.26,3.25-5.23.77-1.97,1.16-4.04,1.16-6.23s-.4-4.33-1.19-6.29c-.79-1.97-1.88-3.71-3.25-5.23ZM402.94,113.58c-1.26,2.31-2.94,4.16-5.05,5.53-2.11,1.38-4.42,2.07-6.93,2.07s-4.82-.68-6.9-2.04c-2.09-1.36-3.75-3.17-4.99-5.44-1.24-2.27-1.85-4.76-1.85-7.48s.63-5.29,1.88-7.6c1.26-2.31,2.94-4.17,5.05-5.56,2.11-1.4,4.4-2.1,6.87-2.1s4.81.69,6.9,2.07c2.09,1.38,3.76,3.21,5.02,5.5,1.26,2.29,1.89,4.8,1.89,7.51s-.63,5.23-1.89,7.54Z"/>
    <path class="cls-1" d="M425.45,90.35c-2.07.24-4.02,1.09-5.87,2.52-1.84,1.44-3.31,3.28-4.41,5.5v-8.15h-1.22v31.57h1.22v-19.95c.85-3.12,2.37-5.6,4.56-7.45,2.19-1.84,4.76-2.83,7.72-2.95v-1.22c-.24,0-.54.01-.88.03-.34.02-.72.05-1.13.09Z"/>
    <rect class="cls-1" x="433.6" y="77.39" width="1.22" height="4.68"/>
    <rect class="cls-1" x="433.6" y="90.23" width="1.22" height="31.57"/>
    <path class="cls-1" d="M465.25,91.93c-2.29-1.46-4.84-2.19-7.63-2.19s-5.26.72-7.51,2.16c-2.25,1.44-4.04,3.38-5.38,5.81-1.34,2.43-2.01,5.13-2.01,8.09,0,2.27.4,4.41,1.19,6.42.79,2.01,1.89,3.77,3.28,5.29,1.4,1.52,3.02,2.72,4.86,3.59,1.84.87,3.8,1.31,5.87,1.31,1.82,0,3.59-.33,5.29-.97,1.7-.65,3.19-1.55,4.47-2.71,1.28-1.16,2.2-2.44,2.77-3.86l-1.16-.3c-.89,1.95-2.39,3.54-4.5,4.77-2.11,1.24-4.38,1.85-6.81,1.85s-4.68-.64-6.75-1.92-3.75-3.01-5.05-5.2c-1.3-2.19-2.05-4.64-2.25-7.36h28.89v-.67c0-3.04-.69-5.79-2.07-8.24-1.38-2.45-3.21-4.41-5.5-5.87ZM443.93,105.49c.16-2.8.86-5.29,2.1-7.48,1.24-2.19,2.87-3.91,4.9-5.17,2.03-1.26,4.28-1.89,6.75-1.89s4.78.63,6.81,1.89c2.03,1.26,3.67,2.97,4.93,5.14,1.26,2.17,1.97,4.67,2.13,7.51h-27.61Z"/>
    <path class="cls-1" d="M495.33,106.71c-1.82-.61-3.99-1.2-6.51-1.76-1.95-.49-3.55-.95-4.8-1.4-1.26-.45-2.19-1.05-2.8-1.82-.61-.77-.91-1.84-.91-3.22,0-1.78.45-3.22,1.34-4.32.89-1.1,2.07-1.91,3.53-2.43,1.46-.53,3.06-.79,4.8-.79,2.03,0,3.91.33,5.66.97,1.74.65,3,1.6,3.77,2.86l1.09-.49c-.69-1.3-1.94-2.38-3.74-3.25-1.8-.87-3.98-1.31-6.54-1.31-1.99,0-3.82.31-5.5.94-1.68.63-3.04,1.59-4.08,2.89-1.03,1.3-1.55,3-1.55,5.11,0,1.66.35,2.94,1.06,3.83.71.89,1.78,1.59,3.22,2.1,1.44.51,3.23,1.02,5.38,1.55,2.35.53,4.35,1.06,5.99,1.61,1.64.55,2.89,1.26,3.74,2.13.85.87,1.28,2.08,1.28,3.62,0,2.39-.97,4.27-2.92,5.63-1.95,1.36-4.48,2.04-7.6,2.04-2.23,0-4.24-.38-6.02-1.16-1.78-.77-3.49-1.95-5.11-3.53l-.91.79c1.58,1.74,3.39,3.03,5.41,3.86,2.03.83,4.24,1.25,6.63,1.25,3.53,0,6.37-.82,8.51-2.46,2.15-1.64,3.22-3.84,3.22-6.6,0-1.82-.49-3.23-1.46-4.23-.97-.99-2.37-1.79-4.2-2.4Z"/>
    <polygon class="cls-1" points="501.75 86.58 504.45 86.58 504.45 93.92 505.02 93.92 505.02 86.58 507.71 86.58 507.71 86.01 501.75 86.01 501.75 86.58"/>
    <polygon class="cls-1" points="515.56 86.06 512.59 91.99 509.61 86.06 509.01 86.06 509.01 93.92 509.58 93.92 509.58 87.14 512.36 92.73 512.84 92.73 515.62 87.14 515.62 93.92 516.19 93.92 516.19 86.06 515.56 86.06"/>
  </g>
  <g>
    <path class="cls-2" d="M199.22,28.83c-.49-.57-1.14-1.12-1.95-1.65-.81-.53-1.73-1.01-2.75-1.43-1.02-.43-2.13-.77-3.33-1.04-1.2-.26-2.45-.4-3.75-.4-3.38,0-5.85.63-7.42,1.89-1.57,1.26-2.35,2.99-2.35,5.19,0,1.18.22,2.16.67,2.93.45.77,1.15,1.43,2.11,1.98.96.55,2.15,1.03,3.57,1.43,1.42.41,3.11.83,5.07,1.28,2.24.49,4.26,1.05,6.07,1.68,1.81.63,3.36,1.41,4.64,2.35,1.28.94,2.26,2.08,2.93,3.42.67,1.34,1.01,2.99,1.01,4.94,0,2.08-.41,3.88-1.22,5.4-.81,1.53-1.92,2.79-3.33,3.78-1.4,1-3.06,1.73-4.97,2.2-1.91.47-3.99.7-6.23.7-3.34,0-6.5-.52-9.49-1.56s-5.71-2.55-8.15-4.55l2.62-4.64c.65.69,1.5,1.38,2.53,2.08,1.04.69,2.22,1.31,3.54,1.86,1.32.55,2.75,1,4.27,1.34,1.53.35,3.12.52,4.79.52,3.09,0,5.49-.55,7.2-1.65s2.56-2.75,2.56-4.94c0-1.22-.27-2.25-.82-3.08-.55-.83-1.35-1.56-2.41-2.17-1.06-.61-2.37-1.15-3.94-1.62-1.57-.47-3.35-.95-5.34-1.43-2.2-.53-4.13-1.1-5.8-1.71-1.67-.61-3.06-1.34-4.18-2.2-1.12-.85-1.96-1.89-2.53-3.11-.57-1.22-.85-2.69-.85-4.39,0-2.08.39-3.91,1.16-5.49.77-1.59,1.85-2.93,3.23-4.03,1.38-1.1,3.03-1.92,4.94-2.47,1.91-.55,3.99-.82,6.23-.82,2.93,0,5.57.45,7.93,1.34,2.36.9,4.46,2.1,6.29,3.6l-2.56,4.46Z"/>
    <path class="cls-2" d="M224,63.68c-2.4,0-4.59-.45-6.56-1.34-1.97-.89-3.66-2.1-5.07-3.6-1.4-1.5-2.49-3.25-3.27-5.25-.77-1.99-1.16-4.09-1.16-6.29s.4-4.35,1.19-6.35c.79-1.99,1.89-3.74,3.3-5.25,1.4-1.5,3.09-2.71,5.07-3.6,1.97-.89,4.14-1.34,6.5-1.34s4.54.45,6.53,1.34c1.99.9,3.69,2.1,5.1,3.6,1.4,1.51,2.5,3.26,3.3,5.25.79,1.99,1.19,4.11,1.19,6.35s-.39,4.29-1.16,6.29c-.77,1.99-1.87,3.74-3.3,5.25-1.42,1.51-3.12,2.71-5.1,3.6-1.97.89-4.16,1.34-6.56,1.34ZM213.44,47.26c0,1.67.27,3.21.82,4.64.55,1.42,1.3,2.67,2.26,3.72.96,1.06,2.08,1.89,3.36,2.5s2.65.92,4.12.92,2.84-.31,4.12-.92,2.41-1.45,3.39-2.53c.98-1.08,1.74-2.34,2.29-3.78.55-1.44.82-3,.82-4.67s-.27-3.16-.82-4.61c-.55-1.44-1.31-2.71-2.29-3.78-.98-1.08-2.11-1.92-3.39-2.53s-2.66-.92-4.12-.92-2.84.32-4.12.95c-1.28.63-2.4,1.49-3.36,2.56-.96,1.08-1.71,2.34-2.26,3.78-.55,1.44-.82,3-.82,4.67Z"/>
    <path class="cls-2" d="M274.01,63.07h-5.37v-17.82c0-3.42-.52-5.9-1.56-7.45-1.04-1.55-2.62-2.32-4.73-2.32-1.1,0-2.2.21-3.3.64-1.1.43-2.14,1.01-3.11,1.74s-1.83,1.61-2.56,2.62c-.73,1.02-1.28,2.14-1.65,3.36v19.23h-5.37v-31.86h4.88v6.84c1.26-2.24,3.08-4.03,5.46-5.37s4.97-2.01,7.78-2.01c1.83,0,3.36.34,4.58,1.01s2.2,1.61,2.93,2.81c.73,1.2,1.25,2.62,1.56,4.24.31,1.63.46,3.4.46,5.31v19.04Z"/>
    <path class="cls-2" d="M296.29,63.68c-2.4,0-4.59-.45-6.56-1.34-1.97-.89-3.66-2.1-5.07-3.6-1.4-1.5-2.49-3.25-3.26-5.25-.77-1.99-1.16-4.09-1.16-6.29s.4-4.35,1.19-6.35c.79-1.99,1.89-3.74,3.3-5.25,1.4-1.5,3.09-2.71,5.07-3.6,1.97-.89,4.14-1.34,6.5-1.34s4.54.45,6.53,1.34c1.99.9,3.69,2.1,5.1,3.6,1.4,1.51,2.5,3.26,3.29,5.25.79,1.99,1.19,4.11,1.19,6.35s-.39,4.29-1.16,6.29c-.77,1.99-1.87,3.74-3.3,5.25-1.42,1.51-3.12,2.71-5.1,3.6s-4.16,1.34-6.56,1.34ZM285.73,47.26c0,1.67.27,3.21.82,4.64.55,1.42,1.3,2.67,2.26,3.72.96,1.06,2.08,1.89,3.36,2.5,1.28.61,2.65.92,4.12.92s2.84-.31,4.12-.92c1.28-.61,2.41-1.45,3.39-2.53.98-1.08,1.74-2.34,2.29-3.78.55-1.44.82-3,.82-4.67s-.27-3.16-.82-4.61c-.55-1.44-1.31-2.71-2.29-3.78-.98-1.08-2.11-1.92-3.39-2.53-1.28-.61-2.66-.92-4.12-.92s-2.84.32-4.12.95c-1.28.63-2.4,1.49-3.36,2.56-.96,1.08-1.71,2.34-2.26,3.78-.55,1.44-.82,3-.82,4.67Z"/>
    <path class="cls-2" d="M335.47,35.91c-2.69.08-5.06.77-7.11,2.08-2.05,1.3-3.51,3.11-4.36,5.43v19.65h-5.37v-31.86h5v7.39c1.1-2.2,2.54-3.98,4.33-5.34,1.79-1.36,3.7-2.13,5.74-2.29h1.04c.28,0,.53.02.73.06v4.88Z"/>
    <path class="cls-2" d="M348.96,63.68c-1.51,0-2.91-.25-4.21-.76-1.3-.51-2.43-1.21-3.39-2.11-.96-.89-1.71-1.94-2.26-3.14-.55-1.2-.82-2.51-.82-3.94s.33-2.8.98-4c.65-1.2,1.58-2.23,2.78-3.08,1.2-.85,2.62-1.53,4.27-2.01,1.65-.49,3.45-.73,5.4-.73,1.55,0,3.11.14,4.7.43,1.59.29,2.99.67,4.21,1.16v-2.56c0-2.6-.73-4.65-2.2-6.13-1.46-1.48-3.54-2.23-6.23-2.23-3.21,0-6.59,1.24-10.13,3.72l-1.77-3.48c4.11-2.77,8.24-4.15,12.39-4.15s7.46,1.12,9.8,3.36c2.34,2.24,3.51,5.39,3.51,9.46v13c0,1.26.57,1.91,1.71,1.95v4.64c-.57.08-1.04.14-1.4.18-.37.04-.75.06-1.16.06-1.06,0-1.9-.31-2.53-.95-.63-.63-1.01-1.39-1.13-2.29l-.12-2.26c-1.42,1.91-3.23,3.37-5.4,4.36s-4.51,1.5-6.99,1.5ZM350.37,59.65c1.91,0,3.69-.36,5.34-1.07,1.65-.71,2.9-1.66,3.75-2.84.77-.77,1.16-1.57,1.16-2.38v-4.7c-2.6-1.02-5.31-1.53-8.12-1.53s-4.87.57-6.56,1.71c-1.69,1.14-2.53,2.62-2.53,4.46,0,.9.17,1.73.52,2.5.35.77.83,1.44,1.46,2.01.63.57,1.37,1.02,2.23,1.34.85.33,1.77.49,2.75.49Z"/>
    <path class="cls-2" d="M419.65,59.53c-1.63,1.18-3.42,2.12-5.37,2.81-1.95.69-4.03,1.04-6.23,1.04-3.05,0-5.83-.63-8.33-1.89-2.5-1.26-4.65-2.91-6.44-4.94-1.79-2.03-3.17-4.37-4.15-7.02-.98-2.64-1.46-5.35-1.46-8.12s.52-5.66,1.56-8.3c1.04-2.64,2.47-4.98,4.3-7.02,1.83-2.03,4-3.65,6.5-4.85,2.5-1.2,5.22-1.8,8.15-1.8s5.82.64,8.3,1.92c2.48,1.28,4.62,2.96,6.41,5.04,1.79,2.08,3.17,4.42,4.15,7.05s1.46,5.3,1.46,8.03c0,2.93-.52,5.71-1.56,8.33-1.04,2.62-2.47,4.95-4.3,6.99l5.43,6.29h-5.37l-3.05-3.54ZM408.11,58.43c1.59,0,3.07-.24,4.46-.73,1.38-.49,2.64-1.16,3.78-2.01l-5.8-6.77h5.37l3.29,3.85c1.18-1.59,2.1-3.36,2.75-5.31.65-1.95.98-3.97.98-6.04,0-2.2-.36-4.32-1.07-6.38-.71-2.05-1.73-3.88-3.05-5.46s-2.89-2.85-4.7-3.78c-1.81-.94-3.81-1.4-6.01-1.4-2.32,0-4.39.49-6.23,1.46s-3.39,2.27-4.67,3.88c-1.28,1.61-2.27,3.43-2.96,5.46-.69,2.04-1.04,4.11-1.04,6.23s.36,4.32,1.07,6.38c.71,2.06,1.72,3.88,3.02,5.46,1.3,1.59,2.87,2.85,4.7,3.78,1.83.94,3.87,1.4,6.1,1.4Z"/>
    <path class="cls-2" d="M444.98,63.68c-3.34,0-5.86-1.12-7.57-3.36-1.71-2.24-2.56-5.57-2.56-10.01v-19.1h5.37v18.07c0,6.51,2.26,9.77,6.77,9.77,2.2,0,4.26-.7,6.2-2.11,1.93-1.4,3.37-3.33,4.3-5.77v-19.96h5.37v25.27c0,1.26.57,1.91,1.71,1.95v4.64c-.61.08-1.09.13-1.43.15s-.68.03-1.01.03c-1.06,0-1.94-.31-2.66-.95-.71-.63-1.09-1.41-1.13-2.35l-.12-3.72c-1.42,2.4-3.3,4.24-5.62,5.52s-4.86,1.92-7.63,1.92Z"/>
    <path class="cls-2" d="M485.93,63.68c-2.4,0-4.6-.44-6.59-1.31-1.99-.87-3.7-2.06-5.13-3.57-1.42-1.5-2.53-3.27-3.33-5.28-.79-2.01-1.19-4.14-1.19-6.38s.4-4.35,1.19-6.35c.79-1.99,1.91-3.74,3.36-5.25,1.44-1.5,3.16-2.7,5.16-3.57,1.99-.87,4.19-1.31,6.59-1.31s4.59.45,6.56,1.34c1.97.9,3.65,2.09,5.04,3.57,1.38,1.49,2.45,3.21,3.2,5.19.75,1.97,1.13,4.02,1.13,6.13,0,.45,0,.85-.03,1.22s-.05.65-.09.85h-26.43c.12,1.59.49,3.03,1.1,4.33.61,1.3,1.4,2.42,2.38,3.36.98.94,2.08,1.67,3.33,2.2,1.24.53,2.55.79,3.94.79.98,0,1.93-.13,2.87-.4.94-.26,1.81-.62,2.62-1.07.81-.45,1.54-1,2.17-1.65.63-.65,1.11-1.38,1.43-2.2l4.64,1.28c-.53,1.18-1.25,2.26-2.17,3.23-.92.98-1.97,1.82-3.17,2.53-1.2.71-2.53,1.27-4,1.68s-2.99.61-4.58.61ZM496.86,45c-.12-1.5-.5-2.9-1.13-4.18-.63-1.28-1.42-2.37-2.38-3.27-.96-.89-2.07-1.6-3.33-2.11-1.26-.51-2.6-.76-4.03-.76s-2.77.25-4.03.76c-1.26.51-2.37,1.22-3.33,2.14s-1.73,2-2.32,3.27c-.59,1.26-.95,2.65-1.07,4.15h21.61Z"/>
    <path class="cls-2" d="M519.07,63.68c-2.56,0-5.09-.4-7.57-1.19-2.48-.79-4.62-1.94-6.41-3.45l2.32-3.6c1.87,1.42,3.74,2.49,5.62,3.2,1.87.71,3.85,1.07,5.92,1.07,2.32,0,4.16-.46,5.52-1.37,1.36-.92,2.04-2.21,2.04-3.88,0-.77-.18-1.43-.55-1.98s-.92-1.03-1.65-1.43c-.73-.41-1.67-.77-2.81-1.1-1.14-.33-2.46-.67-3.97-1.04-1.91-.49-3.56-.96-4.94-1.4-1.38-.45-2.52-.98-3.42-1.59-.9-.61-1.55-1.34-1.95-2.2-.41-.85-.61-1.91-.61-3.17,0-1.59.31-3,.95-4.24.63-1.24,1.5-2.28,2.59-3.11,1.1-.83,2.39-1.46,3.88-1.89,1.48-.43,3.08-.64,4.79-.64,2.4,0,4.64.39,6.71,1.16,2.08.77,3.82,1.79,5.25,3.05l-2.44,3.23c-1.34-1.18-2.85-2.06-4.52-2.66-1.67-.59-3.38-.88-5.13-.88-1.95,0-3.61.42-4.97,1.25-1.36.83-2.04,2.17-2.04,4,0,.73.13,1.34.4,1.83.26.49.7.92,1.31,1.28s1.39.69,2.35.98c.96.29,2.11.59,3.45.92,2.12.49,3.96.99,5.52,1.5,1.57.51,2.87,1.11,3.91,1.8,1.04.69,1.81,1.51,2.32,2.44.51.94.76,2.08.76,3.42,0,2.97-1.14,5.33-3.42,7.08-2.28,1.75-5.35,2.62-9.22,2.62Z"/>
    <path class="cls-2" d="M554.53,61.48c-.33.16-.75.36-1.28.58-.53.22-1.13.45-1.8.67-.67.22-1.4.41-2.2.55-.79.14-1.62.21-2.47.21-1.95,0-3.64-.54-5.07-1.62-1.42-1.08-2.14-2.76-2.14-5.04v-21.42h-4.33v-4.21h4.33v-10.62h5.37v10.62h7.14v4.21h-7.14v19.77c.08,1.18.47,2.04,1.16,2.56.69.53,1.5.79,2.44.79,1.06,0,2.02-.17,2.9-.52.87-.35,1.47-.62,1.8-.82l1.28,4.27Z"/>
  </g>
  <g>
    <path class="cls-3" d="M111.8,59.17h24.33l.11,1.38c.04.42.33,4.2-.03,6.27l-.22,1.24h-22.58c.07,1.01.11,2,.11,2.98s-.04,1.97-.11,2.98h29.6c.03-.82.06-1.65.06-2.48,0-6.34-.84-12.49-2.4-18.35h-24.25l17.17-17.16c-1.02-1.77-2.1-3.49-3.26-5.16l-21.35,21.32c1.14,2.23,2.08,4.57,2.79,6.97Z"/>
    <path class="cls-3" d="M91.76,34.54l16.61-16.61,1.03.74c1.64,1.17,3.24,2.44,4.77,3.76l1.22,1.06-16.2,16.2c1.5,1.3,2.91,2.71,4.21,4.21l15.08-15.08,5.77-5.58c-4.76-5.19-10.27-9.66-16.36-13.27l-17.06,17.06V2.66c-1.95-.55-3.94-1.02-5.96-1.4v30.31c2.35.77,4.67,1.76,6.89,2.97Z"/>
    <path class="cls-3" d="M52.32,107.54l-16.66,16.66-1.04-.79c-.13-.1-3.2-2.44-4.71-3.75l-1.22-1.05,16.2-16.2c-1.5-1.3-2.91-2.71-4.21-4.21l-21.76,21.76c4.9,5.32,10.6,9.89,16.91,13.54l6.53-7.54,10.89-10.89v25.64c1.95.52,3.94.94,5.96,1.29v-31.49c-2.35-.77-4.67-1.76-6.89-2.97Z"/>
    <path class="cls-3" d="M108.54,90.76l16.61,16.61-.74,1.03c-1.17,1.63-2.43,3.24-3.76,4.77l-1.06,1.22-16.2-16.2c-1.3,1.5-2.71,2.91-4.21,4.21l21.27,21.27c5.09-4.78,9.48-10.3,13.01-16.38l-17.4-17.47h24.64c.52-1.95.94-3.94,1.29-5.96h-30.49c-.77,2.35-1.76,4.67-2.97,6.89Z"/>
    <path class="cls-3" d="M83.91,110.8v23.52l-1.25.21c-1.94.33-3.97.56-6.03.71l-1.61.11v-22.93c-2.02.15-3.94.15-5.95,0v30.6c.82.03,1.65.06,2.48.06,6.34,0,12.49-.84,18.35-2.4v-25.23l17.79,17.79c1.75-1.03,3.46-2.14,5.11-3.31l-21.91-21.93c-2.23,1.14-4.57,2.08-6.97,2.79Z"/>
    <path class="cls-3" d="M32.28,82.91H8.77l-.21-1.25c-.33-1.95-.56-3.98-.71-6.03l-.11-1.61h22.93c-.07-1.01-.11-2.01-.11-2.98s.04-1.97.11-2.98H.09c-.06,1.15-.09,2.31-.09,3.48,0,5.98.75,11.79,2.14,17.35h25.49l-18.16,18.16c1.02,1.77,2.1,3.49,3.26,5.16l22.35-22.32c-1.14-2.23-2.08-4.57-2.79-6.97Z"/>
    <path class="cls-3" d="M32.57,58.23c.77-2.37,1.76-4.68,2.97-6.9l-16.66-16.66.79-1.04c.1-.13,2.44-3.2,3.75-4.71l1.06-1.22,16.2,16.2c1.3-1.5,2.71-2.91,4.21-4.21l-21.24-21.24c-5.19,4.68-9.69,10.11-13.33,16.12l17.7,17.7H2.66c-.55,1.95-1.02,3.94-1.4,5.96h20.12s11.18.01,11.18.01Z"/>
    <path class="cls-3" d="M60.17,31.28V7.73l1.29-.18c.16-.02,3.98-.56,5.99-.7l1.61-.11v22.93c2.02-.15,3.94-.15,5.95,0V.09c-1.15-.06-2.31-.09-3.48-.09-5.98,0-11.79.75-17.35,2.14v24.49l-17.52-17.52c-1.78,1-3.53,2.06-5.21,3.21l21.74,21.76c2.23-1.14,4.57-2.08,6.97-2.79Z"/>
  </g>
</svg>